<svg width="48" height="33" viewBox="0 0 48 33" fill="none" xmlns="http://www.w3.org/2000/svg">
<g clip-path="url(#clip0_403_3029)">
<rect y="0.0780029" width="48" height="32.1735" rx="8" fill="#333333"/>
<path d="M21.5767 7.078L26.4858 7.078C28.7769 7.078 29.9225 7.078 30.7976 7.52389C31.5673 7.91609 32.1932 8.54192 32.5854 9.31168C33.0312 10.1868 33.0312 11.3323 33.0312 13.6235V18.5325C33.0313 20.8237 33.0312 21.9692 32.5854 22.8443C32.1932 23.6141 31.5673 24.2399 30.7976 24.6321C29.9225 25.078 28.7769 25.078 26.4858 25.078H21.5767M21.5767 7.078C19.2856 7.078 18.14 7.078 17.2649 7.52389C16.4952 7.9161 15.8693 8.54192 15.4771 9.31168C15.0312 10.1868 15.0312 11.3323 15.0313 13.6235L15.0313 18.5325C15.0313 20.8237 15.0313 21.9692 15.4771 22.8443C15.8693 23.6141 16.4952 24.2399 17.2649 24.6321C18.14 25.078 19.2856 25.078 21.5767 25.078M21.5767 7.078L21.5767 25.078M21.5767 16.078H33.0312" stroke="#3AD0F8" stroke-width="2" stroke-linecap="round"/>
</g>
<defs>
<clipPath id="clip0_403_3029">
<rect y="0.0780029" width="48" height="32.1735" rx="8" fill="white"/>
</clipPath>
</defs>
</svg>
