<svg width="48" height="65" viewBox="0 0 48 65" fill="none" xmlns="http://www.w3.org/2000/svg">
<g clip-path="url(#clip0_403_2980)">
<path d="M15.0312 18.1956C15.0312 17.2014 15.8371 16.3956 16.8312 16.3956C17.8254 16.3956 18.6312 17.2014 18.6312 18.1956V21.7956C18.6312 22.7897 17.8254 23.5956 16.8312 23.5956C15.8371 23.5956 15.0312 22.7897 15.0312 21.7956V18.1956Z" stroke="white" stroke-width="2"/>
<path d="M22.2312 10.9956C22.2312 10.0014 23.0371 9.19556 24.0312 9.19556C25.0254 9.19556 25.8312 10.0014 25.8312 10.9956V21.7956C25.8312 22.7897 25.0254 23.5956 24.0312 23.5956C23.0371 23.5956 22.2312 22.7897 22.2312 21.7956V10.9956Z" stroke="white" stroke-width="2"/>
<path d="M29.4312 14.5956C29.4312 13.6014 30.2371 12.7956 31.2312 12.7956C32.2254 12.7956 33.0312 13.6014 33.0312 14.5956V21.7956C33.0312 22.7897 32.2254 23.5956 31.2312 23.5956C30.2371 23.5956 29.4312 22.7897 29.4312 21.7956V14.5956Z" stroke="white" stroke-width="2"/>
</g>
<g clip-path="url(#clip1_403_2980)">
<path d="M18.4316 47.3267C19.7575 46.2708 21.3546 45.6107 23.0392 45.4225V55.3675H32.9842C32.7959 57.052 32.1358 58.6491 31.0799 59.975C30.024 61.301 28.6152 62.3018 27.0155 62.8623C25.4159 63.4229 23.6905 63.5204 22.0379 63.1436C20.3853 62.7668 18.8727 61.931 17.6742 60.7325C16.4756 59.5339 15.6399 58.0213 15.2631 56.3687C14.8863 54.7161 14.9837 52.9907 15.5443 51.3911C16.1048 49.7915 17.1057 48.3826 18.4316 47.3267Z" stroke="white" stroke-width="2" stroke-linecap="round" stroke-linejoin="round"/>
<path d="M27.0391 51.3674H32.5271C32.0781 50.102 31.3525 48.9527 30.4031 48.0033C29.4537 47.0539 28.3044 46.3283 27.0391 45.8794V51.3674Z" stroke="white" stroke-width="2" stroke-linecap="round" stroke-linejoin="round"/>
</g>
<defs>
<clipPath id="clip0_403_2980">
<rect y="0.195557" width="48" height="32.1735" rx="8" fill="white"/>
</clipPath>
<clipPath id="clip1_403_2980">
<rect y="32.3674" width="48" height="32.1735" rx="8" fill="white"/>
</clipPath>
</defs>
</svg>
