<svg width="48" height="84" viewBox="0 0 48 84" fill="none" xmlns="http://www.w3.org/2000/svg">
<g clip-path="url(#clip0_403_3006)">
<path d="M21.7021 27.9688H26.3751M24.0391 13.9688V14.9688M30.4031 16.6048L29.6961 17.3117M33.0391 22.9688H32.0391M16.0391 22.9688H15.0391M18.3821 17.3117L17.6751 16.6048M20.5031 26.5048C19.8039 25.8054 19.3279 24.9145 19.135 23.9446C18.9422 22.9748 19.0413 21.9695 19.4198 21.056C19.7983 20.1424 20.4391 19.3616 21.2613 18.8122C22.0836 18.2629 23.0502 17.9697 24.0391 17.9697C25.0279 17.9697 25.9946 18.2629 26.8168 18.8122C27.639 19.3616 28.2799 20.1424 28.6583 21.056C29.0368 21.9695 29.1359 22.9748 28.9431 23.9446C28.7503 24.9145 28.2742 25.8054 27.5751 26.5048L27.0271 27.0518C26.7138 27.3651 26.4653 27.7371 26.2957 28.1465C26.1262 28.5559 26.039 28.9946 26.0391 29.4377V29.9688C26.0391 30.4992 25.8283 31.0079 25.4533 31.383C25.0782 31.758 24.5695 31.9688 24.0391 31.9688C23.5086 31.9688 22.9999 31.758 22.6248 31.383C22.2498 31.0079 22.0391 30.4992 22.0391 29.9688V29.4377C22.0391 28.5427 21.6831 27.6838 21.0511 27.0518L20.5031 26.5048Z" stroke="white" stroke-width="2" stroke-linecap="round" stroke-linejoin="round"/>
</g>
<g clip-path="url(#clip1_403_3006)">
<path d="M35.9245 67.4688C36.0975 67.7301 36.0607 67.9362 35.8105 68.1018C35.5774 68.2563 35.3823 68.1533 35.045 67.973C33.8183 67.3167 29.1398 64.8167 24.0539 68.1901C21.9109 69.6118 19.8439 69.8019 18.0285 69.3886C15.2439 68.7544 13.0751 66.6862 12.1551 65.5184C12.0508 65.3859 11.9944 65.0584 12.0582 64.8265C12.0839 64.7308 12.1281 64.6376 12.1919 64.5591C12.2827 64.4487 12.4041 64.3726 12.5599 64.3518C12.7451 64.3273 12.9537 64.3898 13.1732 64.5971L13.2751 64.6928C14.4686 65.8214 17.7831 68.9555 22.4887 65.8336C25.8007 63.6354 29.0723 63.9114 31.5539 64.7958C34.0318 65.6791 35.7589 67.2235 35.9221 67.4688L35.9245 67.4688ZM23.5755 67.4651C26.6631 65.4165 29.6022 65.3589 31.8225 65.8299C31.6434 65.7563 31.4582 65.684 31.2668 65.6165C28.9926 64.8057 25.9982 64.5505 22.9732 66.5574C19.9433 68.5679 17.4372 68.2796 15.6033 67.4308C16.3761 67.9129 17.2593 68.3226 18.2198 68.5421C19.8255 68.9077 21.6619 68.736 23.5755 67.4651Z" fill="white"/>
<path d="M23.5293 65.6409C20.3436 68.9664 16.5285 67.0239 15.4141 66.6524C15.4141 68.8793 19.8717 68.8793 20.9861 68.8793C22.1006 68.8793 27.0293 64.926 33.2447 66.64C31.0159 64.4189 27.5293 64.1393 23.5293 65.6409Z" fill="white"/>
</g>
<defs>
<clipPath id="clip0_403_3006">
<rect y="0.96875" width="48" height="32.1735" rx="8" fill="white"/>
</clipPath>
<clipPath id="clip1_403_3006">
<rect y="51.1406" width="48" height="32.1735" rx="8" fill="white"/>
</clipPath>
</defs>
</svg>
