<svg width="72" height="72" viewBox="0 0 72 72" fill="none" xmlns="http://www.w3.org/2000/svg">
<g filter="url(#filter0_d_403_2533)">
<rect x="8" y="4" width="55.9533" height="56" rx="27.9766" fill="white"/>
<rect x="9" y="5" width="53.9533" height="54" rx="26.9766" stroke="black" stroke-opacity="0.1" stroke-width="2"/>
</g>
<g clip-path="url(#clip0_403_2533)">
<path d="M48.2192 26.9088C48.0336 27.0528 44.7568 28.8992 44.7568 33.0048C44.7568 37.7536 48.9264 39.4336 49.0512 39.4752C49.032 39.5776 48.3888 41.776 46.8528 44.016C45.4832 45.9872 44.0528 47.9552 41.8768 47.9552C39.7008 47.9552 39.1408 46.6912 36.6288 46.6912C34.1808 46.6912 33.3104 47.9968 31.32 47.9968C29.3296 47.9968 27.9408 46.1728 26.344 43.9328C24.4944 41.3024 23 37.216 23 33.3376C23 27.1168 27.0448 23.8176 31.0256 23.8176C33.1408 23.8176 34.904 25.2064 36.232 25.2064C37.496 25.2064 39.4672 23.7344 41.8736 23.7344C42.7856 23.7344 46.0624 23.8176 48.2192 26.9088ZM40.7312 21.1008C41.7264 19.92 42.4304 18.2816 42.4304 16.6432C42.4304 16.416 42.4112 16.1856 42.3696 16C40.7504 16.0608 38.824 17.0784 37.6624 18.4256C36.7504 19.4624 35.8992 21.1008 35.8992 22.7616C35.8992 23.0112 35.9408 23.2608 35.96 23.3408C36.0624 23.36 36.2288 23.3824 36.3952 23.3824C37.848 23.3824 39.6752 22.4096 40.7312 21.1008Z" fill="black"/>
</g>
<defs>
<filter id="filter0_d_403_2533" x="0" y="0" width="71.9534" height="72" filterUnits="userSpaceOnUse" color-interpolation-filters="sRGB">
<feFlood flood-opacity="0" result="BackgroundImageFix"/>
<feColorMatrix in="SourceAlpha" type="matrix" values="0 0 0 0 0 0 0 0 0 0 0 0 0 0 0 0 0 0 127 0" result="hardAlpha"/>
<feOffset dy="4"/>
<feGaussianBlur stdDeviation="4"/>
<feColorMatrix type="matrix" values="0 0 0 0 0.0852895 0 0 0 0 0.0611279 0 0 0 0 0.358617 0 0 0 0.05 0"/>
<feBlend mode="normal" in2="BackgroundImageFix" result="effect1_dropShadow_403_2533"/>
<feBlend mode="normal" in="SourceGraphic" in2="effect1_dropShadow_403_2533" result="shape"/>
</filter>
<clipPath id="clip0_403_2533">
<rect width="26.048" height="32" fill="white" transform="translate(23 16)"/>
</clipPath>
</defs>
</svg>
