<svg width="48" height="65" viewBox="0 0 48 65" fill="none" xmlns="http://www.w3.org/2000/svg">
<g clip-path="url(#clip0_403_3019)">
<path d="M26.8284 19.9456C27.5786 19.1955 28 18.1781 28 17.1172C28 16.0563 27.5786 15.0389 26.8284 14.2888C26.0783 13.5386 25.0609 13.1172 24 13.1172C22.9391 13.1172 21.9217 13.5386 21.1716 14.2888C20.4214 15.0389 20 16.0563 20 17.1172C20 18.1781 20.4214 19.1955 21.1716 19.9456C21.9217 20.6958 22.9391 21.1172 24 21.1172C25.0609 21.1172 26.0783 20.6958 26.8284 19.9456Z" stroke="white" stroke-width="2" stroke-linecap="round" stroke-linejoin="round"/>
<path d="M19.0503 26.1674C20.363 24.8547 22.1435 24.1172 24 24.1172C25.8565 24.1172 27.637 24.8547 28.9497 26.1674C30.2625 27.4802 31 29.2607 31 31.1172H17C17 29.2607 17.7375 27.4802 19.0503 26.1674Z" stroke="white" stroke-width="2" stroke-linecap="round" stroke-linejoin="round"/>
</g>
<g clip-path="url(#clip1_403_3019)">
<path d="M27 59.2891H32L30.595 57.8841C30.4063 57.6953 30.2567 57.4713 30.1546 57.2247C30.0525 56.9782 30 56.7139 30 56.4471V53.2891C30.0002 52.048 29.6156 50.8374 28.8992 49.824C28.1829 48.8105 27.17 48.044 26 47.6301V47.2891C26 46.7586 25.7893 46.2499 25.4142 45.8748C25.0391 45.4998 24.5304 45.2891 24 45.2891C23.4696 45.2891 22.9609 45.4998 22.5858 45.8748C22.2107 46.2499 22 46.7586 22 47.2891V47.6301C19.67 48.4541 18 50.6771 18 53.2891V56.4481C18 56.9861 17.786 57.5031 17.405 57.8841L16 59.2891H21M27 59.2891H21M27 59.2891V60.2891C27 61.0847 26.6839 61.8478 26.1213 62.4104C25.5587 62.973 24.7956 63.2891 24 63.2891C23.2044 63.2891 22.4413 62.973 21.8787 62.4104C21.3161 61.8478 21 61.0847 21 60.2891V59.2891" stroke="white" stroke-width="2" stroke-linecap="round" stroke-linejoin="round"/>
</g>
<defs>
<clipPath id="clip0_403_3019">
<rect y="0.117188" width="48" height="32.1735" rx="8" fill="white"/>
</clipPath>
<clipPath id="clip1_403_3019">
<rect y="32.2891" width="48" height="32.1735" rx="8" fill="white"/>
</clipPath>
</defs>
</svg>
