<svg width="157" height="32" viewBox="0 0 157 32" fill="none" xmlns="http://www.w3.org/2000/svg">
<rect width="156.761" height="32" rx="10" fill="#6ED29C" fill-opacity="0.1"/>
<path d="M23.7088 10.1151C22.9466 10.0425 22.1976 9.8709 21.4848 9.60363C20.6236 9.28191 19.8218 8.82821 19.0992 8.25242C18.6768 7.91586 18.0862 7.91586 17.6638 8.25242C16.9429 8.82656 16.1394 9.28191 15.2782 9.60363C14.5655 9.8709 13.8165 10.0425 13.0542 10.1151C12.4537 10.1728 12 10.6694 12 11.27V17.0047C12 19.4366 13.3512 21.6243 15.5273 22.7131L17.8618 23.8796C18.0235 23.9604 18.2017 24 18.3799 24C18.5581 24 18.7362 23.9588 18.8996 23.8796L21.2341 22.7131C23.4102 21.6243 24.7614 19.4382 24.7614 17.0047V11.27C24.763 10.6678 24.3093 10.1728 23.7088 10.1151ZM21.1153 14.8781L18.2149 17.8313C18.106 17.9418 17.9575 18.0045 17.8008 18.0045H17.7991C17.6424 18.0045 17.4939 17.9402 17.385 17.828L15.6461 16.0363C15.4234 15.807 15.4283 15.4391 15.6577 15.2163C15.887 14.9936 16.2549 14.9986 16.4776 15.2279L17.8041 16.5939L20.2887 14.0648C20.5131 13.8354 20.8794 13.8321 21.1087 14.0565C21.3364 14.2825 21.3397 14.6504 21.1153 14.8781Z" fill="#6ED29C"/>
<path d="M36.5342 13.2727C36.466 12.697 36.1895 12.25 35.7047 11.9318C35.2198 11.6136 34.6251 11.4545 33.9206 11.4545C33.4054 11.4545 32.9547 11.5379 32.5683 11.7045C32.1857 11.8712 31.8865 12.1004 31.6706 12.392C31.4584 12.6837 31.3524 13.0152 31.3524 13.3864C31.3524 13.697 31.4262 13.964 31.574 14.1875C31.7255 14.4072 31.9187 14.5909 32.1535 14.7386C32.3884 14.8826 32.6346 15.0019 32.8922 15.0966C33.1497 15.1875 33.3865 15.2614 33.6024 15.3182L34.7842 15.6364C35.0872 15.7159 35.4244 15.8258 35.7956 15.9659C36.1706 16.1061 36.5285 16.2973 36.8694 16.5398C37.2141 16.7784 37.4982 17.0852 37.7217 17.4602C37.9452 17.8352 38.0569 18.2955 38.0569 18.8409C38.0569 19.4697 37.8922 20.0379 37.5626 20.5455C37.2369 21.053 36.7596 21.4564 36.1308 21.7557C35.5058 22.0549 34.7463 22.2045 33.8524 22.2045C33.0191 22.2045 32.2975 22.0701 31.6876 21.8011C31.0816 21.5322 30.6043 21.1572 30.2558 20.6761C29.9111 20.1951 29.716 19.6364 29.6706 19H31.1251C31.163 19.4394 31.3107 19.803 31.5683 20.0909C31.8297 20.375 32.1592 20.5871 32.5569 20.7273C32.9584 20.8636 33.3903 20.9318 33.8524 20.9318C34.3903 20.9318 34.8732 20.8447 35.3012 20.6705C35.7293 20.4924 36.0683 20.2462 36.3183 19.9318C36.5683 19.6136 36.6933 19.2424 36.6933 18.8182C36.6933 18.4318 36.5853 18.1174 36.3694 17.875C36.1535 17.6326 35.8694 17.4356 35.5172 17.2841C35.1649 17.1326 34.7842 17 34.3751 16.8864L32.9433 16.4773C32.0342 16.2159 31.3145 15.8428 30.7842 15.358C30.2539 14.8731 29.9887 14.2386 29.9887 13.4545C29.9887 12.803 30.1649 12.2348 30.5172 11.75C30.8732 11.2614 31.3505 10.8826 31.949 10.6136C32.5512 10.3409 33.2236 10.2045 33.966 10.2045C34.716 10.2045 35.3827 10.339 35.966 10.608C36.5494 10.8731 37.0115 11.2367 37.3524 11.6989C37.6971 12.161 37.8789 12.6856 37.8978 13.2727H36.5342ZM42.2601 22.2045C41.707 22.2045 41.2051 22.1004 40.7544 21.892C40.3036 21.6799 39.9457 21.375 39.6805 20.9773C39.4154 20.5758 39.2828 20.0909 39.2828 19.5227C39.2828 19.0227 39.3813 18.6174 39.5782 18.3068C39.7752 17.9924 40.0385 17.7462 40.368 17.5682C40.6976 17.3902 41.0612 17.2576 41.4589 17.1705C41.8604 17.0795 42.2638 17.0076 42.6691 16.9545C43.1994 16.8864 43.6294 16.8352 43.9589 16.8011C44.2923 16.7633 44.5347 16.7008 44.6862 16.6136C44.8415 16.5265 44.9191 16.375 44.9191 16.1591V16.1136C44.9191 15.553 44.7657 15.1174 44.4589 14.8068C44.1559 14.4962 43.6957 14.3409 43.0782 14.3409C42.4381 14.3409 41.9362 14.4811 41.5726 14.7614C41.2089 15.0417 40.9532 15.3409 40.8055 15.6591L39.5328 15.2045C39.7601 14.6742 40.0631 14.2614 40.4419 13.9659C40.8244 13.6667 41.2411 13.4583 41.6919 13.3409C42.1464 13.2197 42.5934 13.1591 43.0328 13.1591C43.3131 13.1591 43.6351 13.1932 43.9987 13.2614C44.3661 13.3258 44.7203 13.4602 45.0612 13.6648C45.4059 13.8693 45.6919 14.178 45.9191 14.5909C46.1464 15.0038 46.2601 15.5568 46.2601 16.25V22H44.9191V20.8182H44.851C44.7601 21.0076 44.6085 21.2102 44.3964 21.4261C44.1843 21.642 43.9021 21.8258 43.5498 21.9773C43.1976 22.1288 42.7676 22.2045 42.2601 22.2045ZM42.4646 21C42.9949 21 43.4419 20.8958 43.8055 20.6875C44.1729 20.4792 44.4494 20.2102 44.6351 19.8807C44.8244 19.5511 44.9191 19.2045 44.9191 18.8409V17.6136C44.8623 17.6818 44.7373 17.7443 44.5441 17.8011C44.3548 17.8542 44.1351 17.9015 43.8851 17.9432C43.6388 17.9811 43.3983 18.0152 43.1635 18.0455C42.9324 18.072 42.7449 18.0947 42.601 18.1136C42.2525 18.1591 41.9267 18.233 41.6237 18.3352C41.3244 18.4337 41.082 18.5833 40.8964 18.7841C40.7146 18.9811 40.6237 19.25 40.6237 19.5909C40.6237 20.0568 40.796 20.4091 41.1407 20.6477C41.4892 20.8826 41.9305 21 42.4646 21ZM52.0939 13.2727V14.4091H47.3893V13.2727H52.0939ZM48.7984 22V12.0682C48.7984 11.5682 48.9158 11.1515 49.1507 10.8182C49.3855 10.4848 49.6905 10.2348 50.0655 10.0682C50.4405 9.90151 50.8363 9.81818 51.253 9.81818C51.5825 9.81818 51.8514 9.8447 52.0598 9.89773C52.2681 9.95076 52.4234 10 52.5257 10.0455L52.1393 11.2045C52.0711 11.1818 51.9764 11.1534 51.8552 11.1193C51.7378 11.0852 51.5825 11.0682 51.3893 11.0682C50.9461 11.0682 50.6261 11.1799 50.4291 11.4034C50.2359 11.6269 50.1393 11.9545 50.1393 12.3864V22H48.7984ZM56.7728 22.1818C55.9319 22.1818 55.2066 21.9962 54.5967 21.625C53.9906 21.25 53.5228 20.7273 53.1933 20.0568C52.8675 19.3826 52.7047 18.5985 52.7047 17.7045C52.7047 16.8106 52.8675 16.0227 53.1933 15.3409C53.5228 14.6553 53.9812 14.1212 54.5683 13.7386C55.1592 13.3523 55.8486 13.1591 56.6365 13.1591C57.091 13.1591 57.5399 13.2348 57.9831 13.3864C58.4262 13.5379 58.8297 13.7841 59.1933 14.125C59.5569 14.4621 59.8467 14.9091 60.0626 15.4659C60.2785 16.0227 60.3865 16.7083 60.3865 17.5227V18.0909H53.6592V16.9318H59.0228C59.0228 16.4394 58.9244 16 58.7274 15.6136C58.5342 15.2273 58.2577 14.9223 57.8978 14.6989C57.5418 14.4754 57.1213 14.3636 56.6365 14.3636C56.1024 14.3636 55.6403 14.4962 55.2501 14.7614C54.8637 15.0227 54.5664 15.3636 54.3581 15.7841C54.1497 16.2045 54.0456 16.6553 54.0456 17.1364V17.9091C54.0456 18.5682 54.1592 19.1269 54.3865 19.5852C54.6175 20.0398 54.9376 20.3864 55.3467 20.625C55.7558 20.8598 56.2312 20.9773 56.7728 20.9773C57.1251 20.9773 57.4433 20.928 57.7274 20.8295C58.0153 20.7273 58.2634 20.5758 58.4717 20.375C58.68 20.1705 58.841 19.9167 58.9547 19.6136L60.2501 19.9773C60.1137 20.4167 59.8846 20.803 59.5626 21.1364C59.2406 21.4659 58.8429 21.7235 58.3694 21.9091C57.8959 22.0909 57.3637 22.1818 56.7728 22.1818ZM68.4944 22.2045C67.9414 22.2045 67.4395 22.1004 66.9887 21.892C66.538 21.6799 66.18 21.375 65.9149 20.9773C65.6497 20.5758 65.5172 20.0909 65.5172 19.5227C65.5172 19.0227 65.6156 18.6174 65.8126 18.3068C66.0096 17.9924 66.2728 17.7462 66.6024 17.5682C66.9319 17.3902 67.2956 17.2576 67.6933 17.1705C68.0948 17.0795 68.4982 17.0076 68.9035 16.9545C69.4338 16.8864 69.8637 16.8352 70.1933 16.8011C70.5266 16.7633 70.7691 16.7008 70.9206 16.6136C71.0759 16.5265 71.1535 16.375 71.1535 16.1591V16.1136C71.1535 15.553 71.0001 15.1174 70.6933 14.8068C70.3903 14.4962 69.93 14.3409 69.3126 14.3409C68.6725 14.3409 68.1706 14.4811 67.8069 14.7614C67.4433 15.0417 67.1876 15.3409 67.0399 15.6591L65.7672 15.2045C65.9944 14.6742 66.2975 14.2614 66.6762 13.9659C67.0588 13.6667 67.4755 13.4583 67.9262 13.3409C68.3808 13.2197 68.8278 13.1591 69.2672 13.1591C69.5475 13.1591 69.8694 13.1932 70.2331 13.2614C70.6005 13.3258 70.9547 13.4602 71.2956 13.6648C71.6403 13.8693 71.9262 14.178 72.1535 14.5909C72.3808 15.0038 72.4944 15.5568 72.4944 16.25V22H71.1535V20.8182H71.0853C70.9944 21.0076 70.8429 21.2102 70.6308 21.4261C70.4187 21.642 70.1365 21.8258 69.7842 21.9773C69.4319 22.1288 69.002 22.2045 68.4944 22.2045ZM68.699 21C69.2293 21 69.6762 20.8958 70.0399 20.6875C70.4073 20.4792 70.6838 20.2102 70.8694 19.8807C71.0588 19.5511 71.1535 19.2045 71.1535 18.8409V17.6136C71.0967 17.6818 70.9717 17.7443 70.7785 17.8011C70.5891 17.8542 70.3694 17.9015 70.1194 17.9432C69.8732 17.9811 69.6327 18.0152 69.3978 18.0455C69.1668 18.072 68.9793 18.0947 68.8353 18.1136C68.4869 18.1591 68.1611 18.233 67.8581 18.3352C67.5588 18.4337 67.3164 18.5833 67.1308 18.7841C66.949 18.9811 66.8581 19.25 66.8581 19.5909C66.8581 20.0568 67.0304 20.4091 67.3751 20.6477C67.7236 20.8826 68.1649 21 68.699 21ZM75.7828 16.75V22H74.4419V13.2727H75.7373V14.6364H75.851C76.0555 14.1932 76.3661 13.8371 76.7828 13.5682C77.1994 13.2955 77.7373 13.1591 78.3964 13.1591C78.9873 13.1591 79.5044 13.2803 79.9476 13.5227C80.3907 13.7614 80.7354 14.125 80.9816 14.6136C81.2279 15.0985 81.351 15.7121 81.351 16.4545V22H80.0101V16.5455C80.0101 15.8598 79.832 15.3258 79.476 14.9432C79.1199 14.5568 78.6313 14.3636 78.0101 14.3636C77.582 14.3636 77.1994 14.4564 76.8623 14.642C76.529 14.8277 76.2657 15.0985 76.0726 15.4545C75.8794 15.8106 75.7828 16.2424 75.7828 16.75ZM86.5967 22.1818C85.8694 22.1818 85.2274 21.9981 84.6706 21.6307C84.1137 21.2595 83.6781 20.7367 83.3637 20.0625C83.0494 19.3845 82.8922 18.5833 82.8922 17.6591C82.8922 16.7424 83.0494 15.947 83.3637 15.2727C83.6781 14.5985 84.1156 14.0777 84.6762 13.7102C85.2369 13.3428 85.8846 13.1591 86.6194 13.1591C87.1876 13.1591 87.6365 13.2538 87.966 13.4432C88.2994 13.6288 88.5531 13.8409 88.7274 14.0795C88.9054 14.3144 89.0437 14.5076 89.1422 14.6591H89.2558V10.3636H90.5967V22H89.3012V20.6591H89.1422C89.0437 20.8182 88.9035 21.0189 88.7217 21.2614C88.5399 21.5 88.2804 21.714 87.9433 21.9034C87.6062 22.089 87.1573 22.1818 86.5967 22.1818ZM86.7785 20.9773C87.3164 20.9773 87.7709 20.8371 88.1422 20.5568C88.5134 20.2727 88.7956 19.8807 88.9887 19.3807C89.1819 18.8769 89.2785 18.2955 89.2785 17.6364C89.2785 16.9848 89.1838 16.4148 88.9944 15.9261C88.805 15.4337 88.5247 15.0511 88.1535 14.7784C87.7823 14.5019 87.324 14.3636 86.7785 14.3636C86.2103 14.3636 85.7369 14.5095 85.3581 14.8011C84.9831 15.089 84.7009 15.4811 84.5115 15.9773C84.3259 16.4697 84.2331 17.0227 84.2331 17.6364C84.2331 18.2576 84.3278 18.822 84.5172 19.3295C84.7103 19.8333 84.9944 20.2348 85.3694 20.5341C85.7482 20.8295 86.2179 20.9773 86.7785 20.9773ZM102.921 15.2273L101.716 15.5682C101.64 15.3674 101.529 15.1723 101.381 14.983C101.237 14.7898 101.04 14.6307 100.79 14.5057C100.54 14.3807 100.22 14.3182 99.8297 14.3182C99.2956 14.3182 98.8505 14.4413 98.4944 14.6875C98.1422 14.9299 97.966 15.2386 97.966 15.6136C97.966 15.947 98.0872 16.2102 98.3297 16.4034C98.5721 16.5966 98.9509 16.7576 99.466 16.8864L100.761 17.2045C101.542 17.3939 102.123 17.6837 102.506 18.0739C102.888 18.4602 103.08 18.9583 103.08 19.5682C103.08 20.0682 102.936 20.5152 102.648 20.9091C102.364 21.303 101.966 21.6136 101.455 21.8409C100.943 22.0682 100.349 22.1818 99.6706 22.1818C98.7804 22.1818 98.0437 21.9886 97.4603 21.6023C96.877 21.2159 96.5077 20.6515 96.3524 19.9091L97.6251 19.5909C97.7463 20.0606 97.9755 20.4129 98.3126 20.6477C98.6535 20.8826 99.0986 21 99.6478 21C100.273 21 100.769 20.8674 101.136 20.6023C101.508 20.3333 101.693 20.0114 101.693 19.6364C101.693 19.3333 101.587 19.0795 101.375 18.875C101.163 18.6667 100.837 18.5114 100.398 18.4091L98.9433 18.0682C98.1441 17.8788 97.5569 17.5852 97.1819 17.1875C96.8107 16.786 96.6251 16.2841 96.6251 15.6818C96.6251 15.1894 96.7634 14.7538 97.0399 14.375C97.3202 13.9962 97.7009 13.6989 98.1819 13.483C98.6668 13.267 99.216 13.1591 99.8297 13.1591C100.693 13.1591 101.371 13.3485 101.864 13.7273C102.36 14.1061 102.712 14.6061 102.921 15.2273ZM108.257 22.1818C107.416 22.1818 106.691 21.9962 106.081 21.625C105.475 21.25 105.007 20.7273 104.678 20.0568C104.352 19.3826 104.189 18.5985 104.189 17.7045C104.189 16.8106 104.352 16.0227 104.678 15.3409C105.007 14.6553 105.466 14.1212 106.053 13.7386C106.644 13.3523 107.333 13.1591 108.121 13.1591C108.575 13.1591 109.024 13.2348 109.467 13.3864C109.911 13.5379 110.314 13.7841 110.678 14.125C111.041 14.4621 111.331 14.9091 111.547 15.4659C111.763 16.0227 111.871 16.7083 111.871 17.5227V18.0909H105.144V16.9318H110.507C110.507 16.4394 110.409 16 110.212 15.6136C110.019 15.2273 109.742 14.9223 109.382 14.6989C109.026 14.4754 108.606 14.3636 108.121 14.3636C107.587 14.3636 107.125 14.4962 106.734 14.7614C106.348 15.0227 106.051 15.3636 105.842 15.7841C105.634 16.2045 105.53 16.6553 105.53 17.1364V17.9091C105.53 18.5682 105.644 19.1269 105.871 19.5852C106.102 20.0398 106.422 20.3864 106.831 20.625C107.24 20.8598 107.716 20.9773 108.257 20.9773C108.609 20.9773 108.928 20.928 109.212 20.8295C109.5 20.7273 109.748 20.5758 109.956 20.375C110.164 20.1705 110.325 19.9167 110.439 19.6136L111.734 19.9773C111.598 20.4167 111.369 20.803 111.047 21.1364C110.725 21.4659 110.327 21.7235 109.854 21.9091C109.38 22.0909 108.848 22.1818 108.257 22.1818ZM116.956 22.1818C116.138 22.1818 115.433 21.9886 114.842 21.6023C114.252 21.2159 113.797 20.6837 113.479 20.0057C113.161 19.3277 113.002 18.553 113.002 17.6818C113.002 16.7955 113.164 16.0133 113.49 15.3352C113.82 14.6534 114.278 14.1212 114.865 13.7386C115.456 13.3523 116.145 13.1591 116.933 13.1591C117.547 13.1591 118.1 13.2727 118.592 13.5C119.085 13.7273 119.488 14.0455 119.803 14.4545C120.117 14.8636 120.312 15.3409 120.388 15.8864H119.047C118.945 15.4886 118.717 15.1364 118.365 14.8295C118.017 14.5189 117.547 14.3636 116.956 14.3636C116.433 14.3636 115.975 14.5 115.581 14.7727C115.191 15.0417 114.886 15.4223 114.666 15.9148C114.45 16.4034 114.342 16.9773 114.342 17.6364C114.342 18.3106 114.449 18.8977 114.661 19.3977C114.877 19.8977 115.18 20.286 115.57 20.5625C115.964 20.839 116.426 20.9773 116.956 20.9773C117.305 20.9773 117.621 20.9167 117.905 20.7955C118.189 20.6742 118.43 20.5 118.627 20.2727C118.824 20.0455 118.964 19.7727 119.047 19.4545H120.388C120.312 19.9697 120.125 20.4337 119.825 20.8466C119.53 21.2557 119.138 21.5814 118.649 21.8239C118.164 22.0625 117.6 22.1818 116.956 22.1818ZM127.348 18.4318V13.2727H128.689V22H127.348V20.5227H127.257C127.053 20.9659 126.734 21.3428 126.303 21.6534C125.871 21.9602 125.325 22.1136 124.666 22.1136C124.121 22.1136 123.636 21.9943 123.212 21.7557C122.788 21.5133 122.454 21.1496 122.212 20.6648C121.969 20.1761 121.848 19.5606 121.848 18.8182V13.2727H123.189V18.7273C123.189 19.3636 123.367 19.8712 123.723 20.25C124.083 20.6288 124.541 20.8182 125.098 20.8182C125.431 20.8182 125.77 20.733 126.115 20.5625C126.464 20.392 126.755 20.1307 126.99 19.7784C127.229 19.4261 127.348 18.9773 127.348 18.4318ZM130.645 22V13.2727H131.94V14.5909H132.031C132.19 14.1591 132.478 13.8087 132.895 13.5398C133.312 13.2708 133.781 13.1364 134.304 13.1364C134.403 13.1364 134.526 13.1383 134.673 13.142C134.821 13.1458 134.933 13.1515 135.009 13.1591V14.5227C134.963 14.5114 134.859 14.4943 134.696 14.4716C134.537 14.4451 134.368 14.4318 134.19 14.4318C133.766 14.4318 133.387 14.5208 133.054 14.6989C132.725 14.8731 132.463 15.1155 132.27 15.4261C132.081 15.733 131.986 16.0833 131.986 16.4773V22H130.645ZM139.492 22.1818C138.651 22.1818 137.925 21.9962 137.315 21.625C136.709 21.25 136.242 20.7273 135.912 20.0568C135.586 19.3826 135.423 18.5985 135.423 17.7045C135.423 16.8106 135.586 16.0227 135.912 15.3409C136.242 14.6553 136.7 14.1212 137.287 13.7386C137.878 13.3523 138.567 13.1591 139.355 13.1591C139.81 13.1591 140.259 13.2348 140.702 13.3864C141.145 13.5379 141.548 13.7841 141.912 14.125C142.276 14.4621 142.565 14.9091 142.781 15.4659C142.997 16.0227 143.105 16.7083 143.105 17.5227V18.0909H136.378V16.9318H141.742C141.742 16.4394 141.643 16 141.446 15.6136C141.253 15.2273 140.976 14.9223 140.617 14.6989C140.261 14.4754 139.84 14.3636 139.355 14.3636C138.821 14.3636 138.359 14.4962 137.969 14.7614C137.582 15.0227 137.285 15.3636 137.077 15.7841C136.868 16.2045 136.764 16.6553 136.764 17.1364V17.9091C136.764 18.5682 136.878 19.1269 137.105 19.5852C137.336 20.0398 137.656 20.3864 138.065 20.625C138.475 20.8598 138.95 20.9773 139.492 20.9773C139.844 20.9773 140.162 20.928 140.446 20.8295C140.734 20.7273 140.982 20.5758 141.19 20.375C141.399 20.1705 141.56 19.9167 141.673 19.6136L142.969 19.9773C142.832 20.4167 142.603 20.803 142.281 21.1364C141.959 21.4659 141.562 21.7235 141.088 21.9091C140.615 22.0909 140.082 22.1818 139.492 22.1818Z" fill="#666666"/>
</svg>
